<svg width="52" height="56" viewBox="0 0 52 56" fill="none" xmlns="http://www.w3.org/2000/svg">
<g clip-path="url(#clip0_29_4398)">
<path d="M27.876 4.93938C27.8889 3.50427 27.9019 2.06916 27.9148 0.632993C27.9202 0.0840573 27.9503 0.0542701 28.4637 0.280866C29.4765 0.727674 30.4818 1.18938 31.4893 1.64895C32.938 2.30959 34.3836 2.97555 35.8323 3.63512C36.5459 3.95959 37.2617 4.27661 37.9807 4.58831C38.2347 4.69895 38.3445 4.85001 38.3466 5.14895C38.3692 8.20959 38.3994 11.2713 38.4521 14.3319C38.4898 16.4904 38.5727 18.6479 38.6211 20.8064C38.634 21.3883 38.6136 21.9734 38.5705 22.5532C38.5404 22.9543 38.7309 23.15 39.0667 23.3181C41.5649 24.567 44.0534 25.8372 46.5559 27.0777C46.8605 27.2287 47.0144 27.4117 47.0068 27.717C46.9713 29.167 47.1565 30.6075 47.1834 32.0553C47.2103 33.4872 47.3082 34.917 47.3534 36.3489C47.3771 37.1064 47.3147 37.1213 46.6258 36.8053C44.0362 35.616 41.439 34.4426 38.8471 33.2564C36.5545 32.2075 34.2673 31.1479 31.9758 30.0958C30.7681 29.5415 29.5616 28.9841 28.3442 28.4511C28.0181 28.3085 27.8943 28.1266 27.8997 27.7724C27.9169 26.7458 27.8965 25.7192 27.89 24.6915C27.8965 23.0989 27.8943 21.5064 27.9169 19.9149C27.9223 19.5532 27.7845 19.4681 27.4444 19.4787C26.6393 19.5032 25.8331 19.4926 25.028 19.4958C25.0259 19.4341 25.0237 19.3724 25.0205 19.3096C25.7976 19.3043 26.5758 19.2777 27.3519 19.3043C27.7307 19.317 27.7587 19.1532 27.6974 18.8713C27.8674 18.833 27.9137 18.7181 27.9115 18.5596C27.8868 17.067 27.9664 15.5734 27.8663 14.0819C27.8222 13.9638 27.8168 13.8458 27.8674 13.7287C27.9245 12.4117 27.9664 11.0947 27.8491 9.77874C27.7856 9.68406 27.8427 9.59682 27.8631 9.5064C27.9492 7.98406 27.9288 6.46172 27.876 4.93938Z" fill="#9CA73A"/>
<path d="M25.0205 19.3096C25.0227 19.3713 25.0248 19.433 25.0281 19.4957C24.9398 21.2202 24.9775 22.9457 25.0098 24.6713C24.9979 25.6106 24.9366 26.5521 24.9947 27.4872C25.0302 28.0553 24.773 28.2915 24.3209 28.4883C22.5234 29.2713 20.727 30.0574 18.9435 30.8755C16.511 31.9904 14.0344 33.0128 11.5857 34.0947C10.3554 34.6383 9.15101 35.2383 7.92614 35.7936C7.32447 36.0659 6.67974 36.2511 6.09637 36.5542C5.68413 36.7681 5.64646 36.5872 5.64108 36.2787C5.63247 35.7298 5.63785 35.1798 5.63785 34.6308C5.63785 32.3117 5.65184 29.9925 5.62708 27.6745C5.6217 27.2011 5.781 26.9362 6.20723 26.7447C8.66774 25.634 11.0927 24.4394 13.592 23.4245C14.4175 23.0894 14.593 22.7202 14.5682 21.9277C14.4993 19.7681 14.6285 17.5979 14.4778 15.4447C14.2593 12.316 14.3712 9.18723 14.2905 6.05957C14.2625 4.96489 14.2776 4.98298 15.3206 4.49149C17.0664 3.66808 18.7982 2.81489 20.5397 1.98191C21.869 1.34681 23.2047 0.723403 24.5383 0.0978715C24.7009 0.0212757 24.8806 -0.0478732 25.0517 0.0499991C25.2509 0.163829 25.1831 0.38085 25.1529 0.531914C24.8537 2.00319 25.0743 3.49042 25.0012 4.96702C25.0055 6.46915 25.0087 7.97234 25.013 9.47447C25.0162 9.5851 25.0184 9.69681 25.0216 9.80744C24.9398 11.0553 24.9947 12.3032 24.9915 13.5511C24.9915 13.7606 24.9904 13.9702 24.9893 14.1798C24.9893 15.7394 24.9904 17.2989 24.9915 18.8596C24.9979 19.0106 24.9333 19.166 25.0216 19.3117L25.0205 19.3096Z" fill="#1F72B8"/>
<path d="M16.6368 55.8925C15.822 56.0798 15.2731 55.9394 14.8663 55.2447C14.439 54.5149 13.8771 53.8628 13.4046 53.1564C12.9859 52.5308 13.0752 52.3702 13.7749 52.1287C14.3572 51.9287 14.9502 51.7298 15.1192 51.0021C15.2397 50.483 14.9168 49.9489 14.369 49.9245C13.8147 49.9 13.2571 49.9298 12.7028 49.9096C12.3433 49.8968 12.2572 50.0436 12.2604 50.3808C12.2777 52.0277 12.2561 53.6755 12.2787 55.3223C12.2852 55.7723 12.212 56.0021 11.676 55.9723C11.1335 55.9425 11.2821 55.6255 11.2799 55.3159C11.2713 53.4766 11.2605 51.6372 11.2282 49.7989C11.2153 49.0628 11.1927 49.0585 11.9332 49.0596C12.7222 49.0596 13.5101 49.067 14.299 49.0596C15.3592 49.05 15.9878 49.6149 16.1277 50.1628C16.3591 51.066 15.9652 51.9096 15.1246 52.3894C14.3572 52.8277 14.3744 52.8149 14.9233 53.5298C15.5013 54.283 16.0405 55.0659 16.6368 55.8894V55.8925Z" fill="#1A1A1B"/>
<path d="M30.9963 47.2713C29.9028 47.3489 28.9125 46.9851 28.3087 45.9C27.6715 44.7564 27.7436 42.4234 28.8146 41.4958C29.328 41.0511 29.9168 40.833 30.5572 40.7851C31.3795 40.7234 32.1706 40.7787 32.98 41.1298C33.7668 41.4702 34.023 42.0575 34.2286 42.7372C34.5698 43.866 34.4148 44.9777 33.9907 46.0543C33.7776 46.5947 33.2459 46.7947 32.7658 47.0341C32.2384 47.2968 31.6669 47.2575 30.9953 47.2723L30.9963 47.2713ZM33.388 44.0617C33.388 43.8479 33.3815 43.6532 33.388 43.4585C33.4213 42.5309 32.6302 41.6883 31.7993 41.5362C30.9382 41.3787 29.6337 41.7011 29.3205 42.2692C28.7694 43.2702 28.6768 44.3585 29.1127 45.3851C29.7446 46.8713 31.9866 46.8724 32.8444 45.9192C33.3406 45.3681 33.4547 44.7372 33.3869 44.0606L33.388 44.0617Z" fill="#1A1A1B"/>
<path d="M44.0792 55.9681C43.3925 56.0745 42.7435 55.8532 42.0815 55.7542C41.651 55.6904 41.7532 55.3564 41.7866 55.0872C41.8383 54.6649 42.1859 54.8159 42.3635 54.8883C43.1417 55.2021 43.9479 55.1511 44.7497 55.1213C45.5635 55.0915 45.952 54.6564 45.9208 53.8734C45.8939 53.1947 45.5516 52.8883 44.6507 52.8979C44.0555 52.9042 43.4506 52.7266 42.8543 53.0074C42.5594 53.1468 42.6767 52.5564 42.3431 52.6117C42.1978 52.6351 42.1784 52.1266 41.9308 52.5085C41.9341 52.4893 41.9308 52.4649 41.9405 52.4521C42.0933 52.2691 42.0148 52.0638 41.9276 51.9138C41.4809 51.1436 41.7478 50.4542 42.0977 49.7425C42.2333 49.4659 42.4862 49.4734 42.6853 49.3894C43.7434 48.9394 44.8423 48.9606 45.9477 49.2C46.0683 49.2266 46.191 49.2659 46.3137 49.2649C46.8604 49.2638 46.741 49.6691 46.6958 49.9468C46.6419 50.2787 46.3675 50.1074 46.1867 50.0532C45.3277 49.7979 44.4559 49.7915 43.5841 49.9351C43.0125 50.0287 42.6638 50.483 42.6595 51.0628C42.6563 51.5585 42.9964 51.9074 43.5948 52.0245C44.1771 52.1393 44.768 52.0223 45.359 52.1298C46.2932 52.2989 46.8712 52.8181 46.9347 53.6925C47.0079 54.701 46.6947 55.3925 45.7034 55.7851C45.1545 56.0021 44.6195 55.9191 44.0803 55.9681H44.0792Z" fill="#1F1F1F"/>
<path d="M30.6787 52.5032C30.6787 51.5468 30.6949 50.5894 30.6712 49.633C30.6604 49.1979 30.8036 49.0436 31.2567 49.0543C32.4396 49.0819 33.6225 49.0777 34.8054 49.0543C35.1606 49.0468 35.2187 49.1957 35.2198 49.4872C35.222 49.7926 35.1348 49.9245 34.7914 49.9128C33.9497 49.8851 33.1059 49.9128 32.2642 49.8883C31.8832 49.8777 31.697 49.9734 31.7282 50.3872C31.7572 50.7745 31.7551 51.1681 31.7249 51.5553C31.6948 51.9415 31.8778 52.0553 32.2265 52.0489C32.9606 52.0362 33.6957 52.0308 34.4309 52.0266C34.7495 52.0245 35.1337 51.9809 35.1585 52.4277C35.1854 52.916 34.7839 52.8489 34.4653 52.8511C33.7129 52.8543 32.9584 52.8734 32.2071 52.8468C31.8229 52.833 31.7066 52.967 31.7282 53.3308C31.7551 53.7723 31.754 54.217 31.7282 54.6585C31.7056 55.0415 31.8724 55.1457 32.233 55.1362C33.093 55.1149 33.954 55.1234 34.814 55.1149C35.1036 55.1117 35.3716 55.1415 35.3845 55.5053C35.3963 55.8787 35.1585 55.9649 34.8248 55.9628C33.6064 55.9543 32.3869 55.9468 31.1685 55.967C30.7864 55.9734 30.682 55.8457 30.6917 55.4777C30.7164 54.4862 30.7003 53.4936 30.7003 52.5011C30.6938 52.5011 30.6863 52.5011 30.6798 52.5011L30.6787 52.5032Z" fill="#1F1F1F"/>
<path d="M35.6279 44.051C35.6279 43.1128 35.6441 42.1745 35.6204 41.2372C35.6107 40.8596 35.7388 40.7606 36.1101 40.7723C36.9324 40.7989 37.7569 40.7766 38.5814 40.7745C39.4952 40.7723 40.3218 41.4085 40.324 42.283C40.324 42.7925 40.0484 43.2957 39.5781 43.6659C39.2702 43.9074 38.6707 43.9521 38.6879 44.3851C38.7009 44.7159 39.0668 45.0415 39.295 45.3542C39.6577 45.851 40.0226 46.3457 40.4122 46.8213C40.6759 47.1436 40.5726 47.2521 40.211 47.3213C39.5931 47.4404 39.239 47.0266 39.0162 46.6202C38.6158 45.8883 37.9582 45.3425 37.6277 44.5638C37.3619 43.9383 37.3791 43.8096 38.0174 43.6766C38.6847 43.5372 39.2918 42.9255 39.2692 42.4159C39.2455 41.8776 38.9699 41.5989 38.4328 41.5979C37.9679 41.5979 37.5018 41.6393 37.0368 41.6266C36.6483 41.6159 36.5073 41.7479 36.5127 42.1479C36.531 43.7053 36.5041 45.2628 36.5224 46.8202C36.5277 47.2798 36.3211 47.3362 35.9347 47.2893C35.6731 47.2585 35.6279 47.151 35.6311 46.917C35.6441 45.9617 35.6365 45.0053 35.6365 44.05C35.6333 44.05 35.6311 44.05 35.6279 44.05V44.051Z" fill="#1A1A1B"/>
<path d="M20.1103 50.1819C19.6077 51.3702 19.09 52.4692 18.6831 53.6064C18.456 54.2436 18.1826 54.8606 17.9577 55.4979C17.8037 55.9319 17.4303 56.0851 16.9836 55.9564C16.7349 55.8851 16.7952 55.6947 16.8555 55.5798C17.5982 54.15 18.0621 52.6011 18.8015 51.1681C19.0921 50.6043 19.3042 49.9979 19.5076 49.3957C19.6583 48.9479 20.0038 49.0926 20.3009 49.0649C20.5732 49.0394 20.7906 49.1223 20.8788 49.3968C21.2104 50.4255 21.7173 51.3819 22.1252 52.3798C22.5719 53.4734 23.0563 54.5532 23.5234 55.6383C23.6203 55.8638 23.5363 55.9266 23.2974 55.9649C22.7549 56.05 22.4471 55.8479 22.2813 55.3372C22.1629 54.9702 21.953 54.6319 21.84 54.2649C21.7184 53.8681 21.4493 53.7543 21.0812 53.7617C20.7239 53.7691 20.3665 53.7915 20.0081 53.7979C19.8251 53.8011 19.5431 53.9128 19.5119 53.6511C19.4818 53.4053 19.5603 53.1266 19.8951 53.0362C20.1964 52.9553 20.4924 52.9404 20.797 52.9968C20.9639 53.0277 21.1684 53.1468 21.2922 52.9734C21.3976 52.8255 21.2157 52.6979 21.1598 52.5575C20.9058 51.9255 20.684 51.2809 20.4332 50.6479C20.3719 50.4926 20.2406 50.3649 20.1103 50.1809V50.1819Z" fill="#1A1A1B"/>
<path d="M5.07817 44.101C5.07817 43.233 5.06741 42.3649 5.0814 41.4968C5.09216 40.8436 5.18042 40.7702 5.81439 40.7702C6.88965 40.7702 7.96598 40.7734 9.04125 40.767C9.31033 40.7659 9.53421 40.7564 9.5299 41.133C9.5256 41.4915 9.34908 41.5968 9.02725 41.5915C8.27489 41.5798 7.52146 41.5893 6.7691 41.5649C6.31058 41.55 6.03827 41.6649 6.14159 42.1872C6.16527 42.3064 6.1459 42.4351 6.1459 42.5585C6.1459 43.5564 6.18034 43.5979 7.19856 43.6159C7.73457 43.6255 8.27166 43.5936 8.80876 43.5957C9.07461 43.5957 9.36092 43.584 9.35446 43.9893C9.34908 44.4 9.07138 44.3564 8.79907 44.3564C8.06393 44.3574 7.32879 44.3819 6.59473 44.3659C6.24169 44.3585 6.1093 44.4851 6.1459 44.8245C6.1642 45 6.14913 45.1787 6.1502 45.3553C6.15236 46.5117 6.15236 46.517 7.35247 46.5138C7.92508 46.5127 8.49769 46.4872 9.07031 46.4776C9.37383 46.4723 9.57403 46.5457 9.56757 46.9266C9.56004 47.3447 9.2888 47.2447 9.05524 47.2521C7.98213 47.2883 6.90902 47.1936 5.83484 47.3191C5.22455 47.3904 5.09324 47.233 5.08894 46.5989C5.08248 45.7659 5.08786 44.933 5.08786 44.101C5.08463 44.101 5.08248 44.101 5.07925 44.101H5.07817Z" fill="#1F1F1F"/>
<path d="M47.686 44.0341C47.686 43.1128 47.7043 42.1904 47.6774 41.2692C47.6656 40.8692 47.8012 40.7607 48.1973 40.7702C49.2909 40.7958 50.3844 40.7809 51.478 40.7766C51.7428 40.7755 51.9753 40.7575 51.9753 41.1404C51.9753 41.5351 51.7288 41.5617 51.4435 41.5596C50.6374 41.5521 49.8301 41.55 49.025 41.5234C48.6849 41.5128 48.5202 41.6181 48.5493 41.9734C48.5676 42.2021 48.5525 42.4341 48.5525 42.6638C48.5525 43.2277 48.8474 43.5046 49.4372 43.4947C50.0109 43.4851 50.5846 43.4745 51.1572 43.4755C51.5932 43.4755 51.9537 43.7628 51.8708 44.066C51.7675 44.4447 51.4672 44.4606 51.1077 44.4372C50.4113 44.3926 49.7106 44.4043 49.0132 44.4128C48.7043 44.417 48.5536 44.566 48.5471 44.9149C48.517 46.5213 48.5051 46.5213 50.1401 46.5213C50.6244 46.5213 51.1088 46.5224 51.5921 46.5213C51.8364 46.5213 51.9903 46.5798 52 46.8766C52.0086 47.166 51.9268 47.2713 51.6233 47.2947C50.6912 47.366 49.7612 47.3809 48.8345 47.2713C48.4556 47.2266 47.9497 47.4968 47.7313 47.15C47.5623 46.8819 47.6947 46.4266 47.6936 46.0543C47.6936 45.3809 47.6936 44.7075 47.6936 44.0341H47.686Z" fill="#1F1F1F"/>
<path d="M12.548 45.2032C12.674 44.5904 12.9689 44.3468 13.5641 44.5319C13.718 44.5798 13.9182 44.5064 14.0904 44.4638C14.239 44.4266 14.367 44.3287 14.2756 44.1564C13.9182 43.4787 13.7568 42.7117 13.2864 42.0181C12.8569 42.5234 12.7353 43.1223 12.5039 43.666C12.0228 44.8 11.5901 45.9553 11.0702 47.0713C10.87 47.5011 10.432 47.2691 10.0757 47.1915C10.5697 46.0149 11.0487 44.8574 11.5406 43.7064C11.9248 42.8064 12.3468 41.9202 12.7009 41.0096C12.8193 40.7053 13.0152 40.7723 13.2024 40.7808C13.4446 40.7915 13.7374 40.6532 13.8881 41.0117C14.3089 42.0043 14.7567 42.9851 15.1829 43.9755C15.6113 44.9713 16.0052 45.9819 16.4637 46.9628C16.5725 47.1968 16.5316 47.2457 16.341 47.2628C15.9568 47.2968 15.5424 47.4489 15.3756 46.8617C15.2496 46.4202 14.9515 46.0266 14.8234 45.5851C14.7276 45.2543 14.5457 45.2287 14.282 45.2425C13.7094 45.2723 13.1379 45.267 12.5491 45.2064L12.548 45.2032Z" fill="#1A1A1B"/>
<path d="M25.0097 24.6702C24.9774 22.9447 24.9398 21.2202 25.028 19.4947C25.8342 19.4915 26.6404 19.5021 27.4444 19.4777C27.7845 19.467 27.9223 19.5521 27.9169 19.9138C27.8954 21.5064 27.8975 23.0989 27.89 24.6904C26.9288 24.683 25.9687 24.6766 25.0076 24.6692L25.0097 24.6702Z" fill="#373433"/>
<path d="M17.2677 44.05C17.2677 43.1298 17.287 42.2085 17.259 41.2894C17.2461 40.8628 17.4011 40.7468 17.8134 40.7617C18.5819 40.7904 19.3525 40.7787 20.1232 40.7681C21.15 40.7543 21.7624 41.3106 21.9422 42.0745C22.1424 42.9266 21.7323 43.9372 20.9552 44.3149C20.5386 44.517 20.1404 44.8064 19.6464 44.7979C19.4268 44.7936 19.1329 44.934 19.077 44.5234C19.0264 44.1617 19.1695 44.0138 19.5097 43.9489C19.9822 43.8585 20.4149 43.7064 20.7345 43.2936C21.0617 42.8692 20.9703 42.4106 20.8508 41.9979C20.7496 41.6447 20.3395 41.6266 19.9897 41.6319C19.5247 41.6394 19.0587 41.6277 18.5937 41.6319C18.3386 41.634 18.2234 41.7298 18.2482 42.0245C18.3763 43.5968 18.274 45.1723 18.2891 46.7468C18.2934 47.1553 18.1115 47.3223 17.7359 47.3245C17.3591 47.3255 17.2461 47.1351 17.2601 46.7575C17.2924 45.8564 17.2709 44.9532 17.2709 44.05H17.2677Z" fill="#1F1F1F"/>
<path d="M29.835 49.2287C29.0213 51.2096 28.2054 53.1893 27.3002 55.1308C27.2712 55.1925 27.2712 55.267 27.2453 55.3308C27.1345 55.6053 27.1108 55.9213 26.6813 55.9649C26.1959 56.0138 25.8687 55.8745 25.6836 55.4287C24.9796 53.734 24.2746 52.0404 23.5772 50.3447C23.4588 50.0574 23.1639 49.8553 23.1757 49.5106C23.1822 49.3287 22.9152 49.0585 23.2866 48.9904C23.574 48.9383 23.9259 48.7755 24.1078 49.2181C24.3048 49.6979 24.547 50.1606 24.7482 50.6383C25.3079 51.9649 25.8569 53.2968 26.4101 54.6266C26.4618 54.6383 26.5134 54.65 26.564 54.6617C27.3454 52.7883 28.1279 50.9149 28.9094 49.0425C29.2075 49.1542 29.5864 48.8702 29.8339 49.2287H29.835Z" fill="#1A1A1B"/>
<path d="M25.0118 9.4734C25.0075 7.97127 25.0043 6.46808 25 4.96595C25.9579 4.85638 26.9191 5.10531 27.876 4.93936C27.9276 6.4617 27.9492 7.98404 27.8631 9.50638C26.9148 9.32872 25.9633 9.38617 25.0129 9.4734H25.0118Z" fill="#373433"/>
<path d="M22.9431 43.9809C22.9431 43.0777 22.9604 42.1745 22.9356 41.2723C22.9248 40.8915 23.0206 40.7479 23.4361 40.7585C24.5813 40.7872 25.7287 40.7766 26.8739 40.7649C27.1365 40.7617 27.2689 40.8106 27.2539 41.1032C27.241 41.3638 27.2689 41.5968 26.8815 41.5883C26.0764 41.5723 25.2691 41.6011 24.464 41.5787C24.0238 41.567 23.8419 41.717 23.8849 42.1628C23.9161 42.4787 23.9011 42.8 23.8839 43.1181C23.8634 43.4872 24.0378 43.6287 24.3951 43.6223C25.1625 43.6096 25.9311 43.6138 26.6996 43.6043C26.9816 43.6011 27.1398 43.6851 27.1118 44.0021C27.086 44.2947 26.9407 44.3809 26.6576 44.3755C25.8697 44.3585 25.0818 44.3564 24.2939 44.3681C24.1583 44.3702 23.999 44.2681 23.9657 44.6383C23.8968 45.3872 23.9549 46.133 23.9043 46.8777C23.8763 47.2883 23.6524 47.2574 23.3726 47.2628C23.0691 47.2691 22.9302 47.1904 22.9388 46.8479C22.9625 45.8926 22.9474 44.9362 22.9474 43.9809H22.9431Z" fill="#1F1F1F"/>
<path d="M44.6724 47.2277C43.7532 47.3223 42.8695 47.2202 42.157 46.5777C41.1377 45.6585 41.0688 44.4606 41.1948 43.2096C41.2938 42.2223 41.7566 41.4745 42.6876 41.0936C43.8189 40.6298 44.9899 40.6149 46.1588 40.983C46.4204 41.066 46.4161 41.3085 46.3913 41.5021C46.3623 41.7298 46.1922 41.7085 45.9866 41.667C45.1966 41.5074 44.4033 41.4266 43.5971 41.617C42.9481 41.7702 42.3238 42.4745 42.1592 43.1043C41.9859 43.7691 42.1204 44.3968 42.2022 45.0351C42.2894 45.717 43.3227 46.5202 44.159 46.5606C44.6929 46.5872 45.2267 46.5968 45.7552 46.4319C45.9511 46.3713 46.2944 46.1574 46.3762 46.5415C46.4516 46.8936 46.218 47.1723 45.8531 47.217C45.4657 47.2638 45.0674 47.2277 44.6735 47.2277H44.6724Z" fill="#1F1F1F"/>
<path d="M8.19414 52.9394C8.19414 53.7532 8.18984 54.567 8.1963 55.3809C8.19845 55.7138 8.23289 55.9904 7.7184 55.9798C7.2502 55.9702 7.19853 55.7585 7.19961 55.3957C7.20391 53.8394 7.191 52.283 7.19207 50.7255C7.19207 49.9 7.19961 49.8989 6.33746 49.8947C6.06945 49.8936 5.79929 49.8787 5.53236 49.9C5.19547 49.9277 5.02971 49.8149 5.03402 49.4628C5.03832 49.1447 5.1804 49.0511 5.49469 49.0543C6.96281 49.0681 8.43094 49.0798 9.89798 49.0447C10.3124 49.0351 10.3371 49.3447 10.3705 49.533C10.4028 49.717 10.2187 49.9223 9.92166 49.9064C9.47498 49.883 9.02615 49.9149 8.57947 49.8936C8.27487 49.8798 8.18123 49.983 8.18769 50.2851C8.20598 51.1691 8.19414 52.0543 8.19414 52.9383V52.9394Z" fill="#1A1A1B"/>
<path d="M36.5859 52.4287C36.5859 51.4723 36.6063 50.5149 36.5773 49.5596C36.5633 49.1085 36.8076 49.0457 37.1617 49.0298C37.6073 49.0106 37.4663 49.3404 37.4674 49.5457C37.4792 51.2106 37.4878 52.8766 37.4674 54.5415C37.462 54.9819 37.6138 55.1383 38.0508 55.1277C38.8925 55.1075 39.7352 55.1298 40.578 55.1192C40.8869 55.1149 41.1 55.1638 41.1086 55.5362C41.1173 55.9074 40.916 55.967 40.6006 55.9606C39.436 55.9394 38.2703 55.9245 37.1057 55.9266C36.687 55.9266 36.545 55.7617 36.5547 55.3511C36.5773 54.3777 36.5622 53.4032 36.5622 52.4287C36.5697 52.4287 36.5783 52.4287 36.5859 52.4287Z" fill="#1A1A1B"/>
<path d="M0.0171514 43.9564C0.0171514 43.0713 0.00854073 42.1862 0.0236095 41.3021C0.0268385 41.083 -0.136765 40.7638 0.350816 40.7553C0.780274 40.7479 0.926656 40.8521 0.943878 41.2979C0.999847 42.8202 0.976168 44.3415 0.948183 45.8617C0.939572 46.3596 1.10856 46.5191 1.57569 46.5128C2.34312 46.5021 3.11054 46.5149 3.87797 46.5181C4.14921 46.5191 4.34726 46.5489 4.3408 46.9202C4.33434 47.2851 4.12553 47.2511 3.89197 47.2521C2.76396 47.2574 1.63596 47.2489 0.509038 47.2776C0.107564 47.2883 -0.0011463 47.1617 0.0117697 46.7702C0.0429835 45.833 0.0214568 44.8947 0.0214568 43.9564H0.0160751H0.0171514Z" fill="#1A1A1B"/>
<path d="M24.9914 18.8574C24.9914 17.2979 24.9903 15.7383 24.9893 14.1777C25.2034 14.1734 25.4176 14.1755 25.6308 14.1649C26.3756 14.1255 27.1269 14.266 27.8663 14.0819C27.9664 15.5734 27.8868 17.067 27.9115 18.5606C27.9137 18.7191 27.8674 18.8351 27.6973 18.8723C26.7954 18.867 25.8934 18.8628 24.9914 18.8574Z" fill="#373433"/>
<path d="M24.9904 13.55C24.9936 12.3021 24.9387 11.0532 25.0205 9.80638C25.9645 9.89893 26.9074 9.95319 27.8481 9.77872C27.9665 11.0947 27.9245 12.4117 27.8664 13.7287C27.6812 13.5628 27.4584 13.5511 27.2216 13.5532C26.4779 13.5596 25.7331 13.5532 24.9893 13.55H24.9904Z" fill="#373433"/>
<path d="M24.9903 13.55C25.7341 13.5521 26.4789 13.5585 27.2227 13.5532C27.4595 13.5511 27.6823 13.5628 27.8674 13.7287C27.8168 13.8468 27.8222 13.9649 27.8663 14.083C27.1269 14.2659 26.3756 14.1266 25.6308 14.1659C25.4176 14.1766 25.2024 14.1755 24.9893 14.1787C24.9893 13.9691 24.9903 13.7596 24.9914 13.55H24.9903Z" fill="#FDFDFD"/>
<path d="M27.8481 9.77766C26.9074 9.95213 25.9645 9.89787 25.0206 9.80532C25.0173 9.69362 25.0152 9.58298 25.012 9.47234C25.9634 9.38404 26.9138 9.3266 27.8621 9.50532C27.8417 9.59574 27.7846 9.68298 27.8481 9.77766Z" fill="#FDFDFD"/>
<path d="M24.9915 18.9489C25.8935 18.9543 26.7954 18.9585 27.6974 18.9638C27.7587 19.2458 27.7308 19.4096 27.3519 19.3968C26.5759 19.3702 25.7977 19.3968 25.0205 19.4021C24.9323 19.2564 24.9969 19.1011 24.9904 18.95L24.9915 18.9489Z" fill="#FDFDFD"/>
</g>
<defs>
<clipPath id="clip0_29_4398">
<rect width="52" height="56" fill="white"/>
</clipPath>
</defs>
</svg>
