<svg width="102" height="102" viewBox="0 0 102 102" fill="none" xmlns="http://www.w3.org/2000/svg">
<path d="M93.0827 44.6875V65.7292C93.0827 80.4583 84.666 86.7708 72.041 86.7708H29.9577C17.3327 86.7708 8.91602 80.4583 8.91602 65.7292V36.2708C8.91602 21.5417 17.3327 15.2292 29.9577 15.2292H59.416" stroke="#FF0000" stroke-width="3" stroke-miterlimit="10" stroke-linecap="round" stroke-linejoin="round"/>
<path opacity="0.4" d="M29.959 38.375L43.1311 48.8958C47.4657 52.3467 54.5778 52.3467 58.9123 48.8958L63.8781 44.94" stroke="#FF0000" stroke-width="3" stroke-miterlimit="10" stroke-linecap="round" stroke-linejoin="round"/>
<path opacity="0.4" d="M82.5619 34.1667C88.3723 34.1667 93.0827 29.4563 93.0827 23.6458C93.0827 17.8353 88.3723 13.125 82.5619 13.125C76.7514 13.125 72.041 17.8353 72.041 23.6458C72.041 29.4563 76.7514 34.1667 82.5619 34.1667Z" stroke="#FF0000" stroke-width="3" stroke-miterlimit="10" stroke-linecap="round" stroke-linejoin="round"/>
</svg>
