<svg width="31" height="21" viewBox="0 0 31 21" fill="none" xmlns="http://www.w3.org/2000/svg">
<path d="M13.5599 14.8619C13.5599 18.1952 11.0994 20.6514 7.31388 20.6514C3.52839 20.6514 0.5 17.7566 0.5 13.0198C0.5 6.61628 5.3265 1.52856 11.9511 0.651367V4.33558C8.26025 5.03733 5.61041 7.31804 5.61041 10.1251C6.27287 9.77417 7.12461 9.51102 8.26025 9.51102C11.194 9.51102 13.5599 11.4408 13.5599 14.8619ZM30.5 14.8619C30.5 18.1952 27.9448 20.6514 24.2539 20.6514C20.3738 20.6514 17.3454 17.7566 17.3454 13.0198C17.3454 6.61628 22.2666 1.52856 28.8912 0.651367V4.33558C25.2003 5.03733 22.5505 7.31804 22.5505 10.0373C23.2129 9.68646 24.0647 9.51102 25.1057 9.51102C28.0394 9.51102 30.5 11.4408 30.5 14.8619Z" fill="#1D81D5" fill-opacity="0.25"/>
</svg>
