<svg width="16" height="16" viewBox="0 0 16 16" fill="none" xmlns="http://www.w3.org/2000/svg">
<g clip-path="url(#clip0_3_16369)">
<path d="M10.9655 6.18966H0.93042V2.4265C0.93042 1.92748 1.12866 1.44889 1.48152 1.09602C1.83439 0.743159 2.31297 0.544922 2.812 0.544922L9.08393 0.544922C9.58295 0.544922 10.0615 0.743159 10.4144 1.09602C10.7673 1.44889 10.9655 1.92748 10.9655 2.4265V6.18966ZM15.6155 3.05369L13.2905 0.728689L12.4037 1.61554L13.4743 2.68616V4.30808C13.4743 4.64076 13.6064 4.95982 13.8417 5.19506C14.0769 5.43031 14.396 5.56247 14.7287 5.56247V11.8344C14.7287 12.0007 14.6626 12.1603 14.545 12.2779C14.4273 12.3955 14.2678 12.4616 14.1015 12.4616C13.9351 12.4616 13.7756 12.3955 13.658 12.2779C13.5404 12.1603 13.4743 12.0007 13.4743 11.8344V11.2072C13.4743 10.7082 13.276 10.2296 12.9232 9.87673C12.5703 9.52386 12.0917 9.32562 11.5927 9.32562H10.9655V7.44404H0.93042V15.5976H10.9655V10.58H11.5927C11.759 10.58 11.9186 10.6461 12.0362 10.7637C12.1538 10.8813 12.2199 11.0409 12.2199 11.2072V11.8344C12.2199 12.3334 12.4181 12.812 12.771 13.1649C13.1239 13.5177 13.6024 13.716 14.1015 13.716C14.6005 13.716 15.0791 13.5177 15.4319 13.1649C15.7848 12.812 15.9831 12.3334 15.9831 11.8344V3.94054C15.9822 3.60804 15.8501 3.28931 15.6155 3.05369Z" fill="#808591"/>
</g>
<defs>
<clipPath id="clip0_3_16369">
<rect width="15.0526" height="15.0526" fill="white" transform="translate(0.930176 0.544922)"/>
</clipPath>
</defs>
</svg>
