<svg width="17" height="16" viewBox="0 0 17 16" fill="none" xmlns="http://www.w3.org/2000/svg">
<g clip-path="url(#clip0_3_16365)">
<path d="M3.48268 2.1129C3.48268 1.24801 4.18577 0.544922 5.05067 0.544922C5.91557 0.544922 6.61865 1.24801 6.61865 2.1129C6.61865 2.9778 5.91557 3.68089 5.05067 3.68089C4.18577 3.68089 3.48268 2.9778 3.48268 2.1129ZM15.0858 13.716H14.1111L12.6096 10.7123C12.1844 9.8625 11.3157 9.32562 10.3655 9.32562H7.38822C7.23957 9.32562 7.11162 9.22151 7.08152 9.07663L6.8413 8.07124H10.0682C10.5882 8.07124 11.009 7.64976 11.009 7.13045C11.009 6.61113 10.5882 6.18966 10.0682 6.18966H6.46185C6.43864 6.18966 6.41544 6.19091 6.39223 6.19279L6.12066 5.05632C6.02909 4.62042 5.64525 4.30871 5.19994 4.30871C4.60285 4.30871 4.15692 4.85813 4.27922 5.44204L5.24008 9.46235C5.45332 10.479 6.34958 11.2072 7.38884 11.2072H10.3661C10.6038 11.2072 10.8208 11.3414 10.9268 11.554L12.4283 14.5577C12.747 15.1949 13.3986 15.5976 14.1111 15.5976H15.0858C15.6051 15.5976 16.0265 15.1761 16.0265 14.6568C16.0265 14.1374 15.6051 13.716 15.0858 13.716ZM9.39586 12.4616H7.33679C5.71298 12.4616 4.30932 11.3295 3.965 9.74271L2.83417 5.04942C2.74009 4.61666 2.3575 4.30808 1.9147 4.30808C1.31511 4.30808 0.868544 4.86189 0.995237 5.44769L2.12607 10.1416C2.6573 12.5933 4.82676 14.3425 7.3349 14.3425H9.39523C10.0946 14.3425 10.5493 13.6068 10.2369 12.9809C10.0776 12.6623 9.75211 12.461 9.39523 12.461L9.39586 12.4616Z" fill="#808591"/>
</g>
<defs>
<clipPath id="clip0_3_16365">
<rect width="15.0526" height="15.0526" fill="white" transform="translate(0.973633 0.544922)"/>
</clipPath>
</defs>
</svg>
