<svg width="16" height="16" viewBox="0 0 16 16" fill="none" xmlns="http://www.w3.org/2000/svg">
<g clip-path="url(#clip0_3_16361)">
<path d="M7.54389 0.544922C5.54845 0.54708 3.63536 1.34072 2.22437 2.75171C0.813378 4.1627 0.0197363 6.0758 0.0175781 8.07124C0.393894 18.0436 14.6939 18.0392 15.0702 8.07124C15.0681 6.0758 14.2744 4.1627 12.8634 2.75171C11.4524 1.34072 9.53933 0.54708 7.54389 0.544922ZM7.54389 1.79931C8.80263 1.80067 10.0319 2.18044 11.072 2.88931C12.1122 3.59818 12.9152 4.60341 13.3768 5.77446L8.81333 6.68702C7.9459 6.86013 7.05282 6.86013 6.18539 6.68702L1.70724 5.79139C2.16645 4.61663 2.9689 3.60744 4.01 2.89536C5.0511 2.18328 6.28257 1.80134 7.54389 1.79931ZM1.27196 8.13835L3.87795 8.65954C4.23905 8.73178 4.57981 8.88262 4.87606 9.10136C5.1723 9.3201 5.41676 9.60138 5.59207 9.92522L5.98406 10.6484C6.18196 11.0144 6.28584 11.4239 6.28637 11.84V14.2177C4.88283 13.9282 3.62052 13.1673 2.70898 12.0615C1.79743 10.9557 1.29148 9.57135 1.2751 8.13835H1.27196ZM8.79828 14.2177V11.8425C8.79881 11.4264 8.90269 11.0169 9.10059 10.6509L9.49258 9.92773C9.6679 9.60389 9.91235 9.32261 10.2086 9.10387C10.5048 8.88513 10.8456 8.73429 11.2067 8.66205L13.8158 8.13835C13.7991 9.57223 13.2923 10.9572 12.3795 12.0632C11.4667 13.1691 10.203 13.9294 8.79828 14.2177Z" fill="#808591"/>
</g>
<defs>
<clipPath id="clip0_3_16361">
<rect width="15.0526" height="15.0526" fill="white" transform="translate(0.0175781 0.544922)"/>
</clipPath>
</defs>
</svg>
